<mxfile host="app.diagrams.net" agent="Mozilla/5.0 (Windows NT 10.0; Win64; x64) AppleWebKit/537.36 (KHTML, like Gecko) Chrome/134.0.0.0 Safari/537.36" version="26.1.3">
  <diagram name="Página-1" id="uUeh_ddypWySZxCycIik">
    <mxGraphModel grid="1" page="1" gridSize="10" guides="1" tooltips="1" connect="1" arrows="1" fold="1" pageScale="1" pageWidth="827" pageHeight="1169" math="0" shadow="0">
      <root>
        <mxCell id="0" />
        <mxCell id="1" parent="0" />
        <mxCell id="4GteqBBK0HGafkRfYPwq-1" value="Cliente web" style="verticalAlign=top;align=left;spacingTop=8;spacingLeft=2;spacingRight=12;shape=cube;size=10;direction=south;fontStyle=4;html=1;whiteSpace=wrap;" vertex="1" parent="1">
          <mxGeometry x="-760" y="30" width="210" height="120" as="geometry" />
        </mxCell>
        <mxCell id="4GteqBBK0HGafkRfYPwq-3" value="Dispositivo móvil" style="verticalAlign=top;align=left;spacingTop=8;spacingLeft=2;spacingRight=12;shape=cube;size=10;direction=south;fontStyle=4;html=1;whiteSpace=wrap;" vertex="1" parent="1">
          <mxGeometry x="-360" y="30" width="210" height="120" as="geometry" />
        </mxCell>
        <mxCell id="4GteqBBK0HGafkRfYPwq-4" value="Servidor web" style="verticalAlign=top;align=left;spacingTop=8;spacingLeft=2;spacingRight=12;shape=cube;size=10;direction=south;fontStyle=4;html=1;whiteSpace=wrap;" vertex="1" parent="1">
          <mxGeometry x="-760" y="220" width="210" height="120" as="geometry" />
        </mxCell>
        <mxCell id="4GteqBBK0HGafkRfYPwq-5" value="API REST" style="verticalAlign=top;align=left;spacingTop=8;spacingLeft=2;spacingRight=12;shape=cube;size=10;direction=south;fontStyle=4;html=1;whiteSpace=wrap;" vertex="1" parent="1">
          <mxGeometry x="-360" y="220" width="210" height="120" as="geometry" />
        </mxCell>
        <mxCell id="4GteqBBK0HGafkRfYPwq-6" value="Bases de datos" style="verticalAlign=top;align=left;spacingTop=8;spacingLeft=2;spacingRight=12;shape=cube;size=10;direction=south;fontStyle=4;html=1;whiteSpace=wrap;" vertex="1" parent="1">
          <mxGeometry x="-760" y="410" width="210" height="120" as="geometry" />
        </mxCell>
        <mxCell id="4GteqBBK0HGafkRfYPwq-7" value="Servicio de pago" style="verticalAlign=top;align=left;spacingTop=8;spacingLeft=2;spacingRight=12;shape=cube;size=10;direction=south;fontStyle=4;html=1;whiteSpace=wrap;" vertex="1" parent="1">
          <mxGeometry x="-360" y="410" width="210" height="120" as="geometry" />
        </mxCell>
        <mxCell id="4GteqBBK0HGafkRfYPwq-8" value="Servidor de correo" style="verticalAlign=top;align=left;spacingTop=8;spacingLeft=2;spacingRight=12;shape=cube;size=10;direction=south;fontStyle=4;html=1;whiteSpace=wrap;" vertex="1" parent="1">
          <mxGeometry x="-760" y="600" width="210" height="120" as="geometry" />
        </mxCell>
        <mxCell id="4GteqBBK0HGafkRfYPwq-10" value="FrontEnd - Angular" style="html=1;align=center;verticalAlign=middle;dashed=0;whiteSpace=wrap;" vertex="1" parent="1">
          <mxGeometry x="-750" y="70" width="180" height="60" as="geometry" />
        </mxCell>
        <mxCell id="4GteqBBK0HGafkRfYPwq-11" value="" style="endArrow=classic;startArrow=classic;html=1;rounded=0;exitX=-0.008;exitY=0.514;exitDx=0;exitDy=0;exitPerimeter=0;entryX=0;entryY=0;entryDx=120;entryDy=110;entryPerimeter=0;" edge="1" parent="1" source="4GteqBBK0HGafkRfYPwq-7" target="4GteqBBK0HGafkRfYPwq-5">
          <mxGeometry width="50" height="50" relative="1" as="geometry">
            <mxPoint x="-390" y="380" as="sourcePoint" />
            <mxPoint x="-560" y="360" as="targetPoint" />
            <Array as="points" />
          </mxGeometry>
        </mxCell>
        <mxCell id="4GteqBBK0HGafkRfYPwq-12" value="" style="endArrow=classic;startArrow=classic;html=1;rounded=0;entryX=0;entryY=0;entryDx=120;entryDy=110;entryPerimeter=0;" edge="1" parent="1" target="4GteqBBK0HGafkRfYPwq-6">
          <mxGeometry width="50" height="50" relative="1" as="geometry">
            <mxPoint x="-660" y="597" as="sourcePoint" />
            <mxPoint x="-520" y="560" as="targetPoint" />
          </mxGeometry>
        </mxCell>
        <mxCell id="4GteqBBK0HGafkRfYPwq-13" value="" style="endArrow=classic;startArrow=classic;html=1;rounded=0;exitX=-0.008;exitY=0.514;exitDx=0;exitDy=0;exitPerimeter=0;entryX=0;entryY=0;entryDx=120;entryDy=110;entryPerimeter=0;" edge="1" parent="1" source="4GteqBBK0HGafkRfYPwq-5" target="4GteqBBK0HGafkRfYPwq-3">
          <mxGeometry width="50" height="50" relative="1" as="geometry">
            <mxPoint x="-160" y="460" as="sourcePoint" />
            <mxPoint x="-110" y="410" as="targetPoint" />
          </mxGeometry>
        </mxCell>
        <mxCell id="4GteqBBK0HGafkRfYPwq-14" value="" style="endArrow=classic;startArrow=classic;html=1;rounded=0;entryX=0;entryY=0;entryDx=120;entryDy=110;entryPerimeter=0;exitX=0;exitY=0.524;exitDx=0;exitDy=0;exitPerimeter=0;" edge="1" parent="1" source="4GteqBBK0HGafkRfYPwq-6" target="4GteqBBK0HGafkRfYPwq-4">
          <mxGeometry width="50" height="50" relative="1" as="geometry">
            <mxPoint x="-160" y="460" as="sourcePoint" />
            <mxPoint x="-110" y="410" as="targetPoint" />
          </mxGeometry>
        </mxCell>
        <mxCell id="4GteqBBK0HGafkRfYPwq-15" value="" style="endArrow=classic;startArrow=classic;html=1;rounded=0;entryX=0;entryY=0;entryDx=120;entryDy=110;entryPerimeter=0;exitX=0.017;exitY=0.524;exitDx=0;exitDy=0;exitPerimeter=0;" edge="1" parent="1" source="4GteqBBK0HGafkRfYPwq-4" target="4GteqBBK0HGafkRfYPwq-1">
          <mxGeometry width="50" height="50" relative="1" as="geometry">
            <mxPoint x="-160" y="460" as="sourcePoint" />
            <mxPoint x="-110" y="410" as="targetPoint" />
          </mxGeometry>
        </mxCell>
      </root>
    </mxGraphModel>
  </diagram>
</mxfile>
